<mxfile host="Electron" agent="Mozilla/5.0 (X11; Linux x86_64) AppleWebKit/537.36 (KHTML, like Gecko) draw.io/26.2.15 Chrome/134.0.6998.205 Electron/35.2.1 Safari/537.36" version="26.2.15">
  <diagram name="Страница — 1" id="Og2O6v1_8cmMjE4YKY-o">
    <mxGraphModel dx="1426" dy="976" grid="1" gridSize="10" guides="1" tooltips="1" connect="1" arrows="1" fold="1" page="1" pageScale="1" pageWidth="827" pageHeight="1169" math="0" shadow="0">
      <root>
        <mxCell id="0" />
        <mxCell id="1" parent="0" />
        <mxCell id="f9OrkrOD7GsaYfjVP4bd-7" value="" style="group" parent="1" vertex="1" connectable="0">
          <mxGeometry x="259" y="390" width="83" height="62" as="geometry" />
        </mxCell>
        <mxCell id="f9OrkrOD7GsaYfjVP4bd-1" value="" style="shape=mxgraph.cisco.computers_and_peripherals.workstation;sketch=0;html=1;pointerEvents=1;dashed=0;fillColor=#036897;strokeColor=#ffffff;strokeWidth=2;verticalLabelPosition=bottom;verticalAlign=top;align=center;outlineConnect=0;" parent="f9OrkrOD7GsaYfjVP4bd-7" vertex="1">
          <mxGeometry width="83" height="62" as="geometry" />
        </mxCell>
        <mxCell id="f9OrkrOD7GsaYfjVP4bd-6" value="&lt;b&gt;&lt;font style=&quot;font-size: 14px;&quot;&gt;PC-A&lt;/font&gt;&lt;/b&gt;" style="text;html=1;align=center;verticalAlign=middle;whiteSpace=wrap;rounded=0;" parent="f9OrkrOD7GsaYfjVP4bd-7" vertex="1">
          <mxGeometry x="3" y="7" width="60" height="30" as="geometry" />
        </mxCell>
        <mxCell id="f9OrkrOD7GsaYfjVP4bd-9" value="" style="group" parent="1" vertex="1" connectable="0">
          <mxGeometry x="449" y="295.5" width="101" height="53" as="geometry" />
        </mxCell>
        <mxCell id="f9OrkrOD7GsaYfjVP4bd-2" value="" style="shape=mxgraph.cisco.switches.workgroup_switch;sketch=0;html=1;pointerEvents=1;dashed=0;fillColor=#036897;strokeColor=#ffffff;strokeWidth=2;verticalLabelPosition=bottom;verticalAlign=top;align=center;outlineConnect=0;" parent="f9OrkrOD7GsaYfjVP4bd-9" vertex="1">
          <mxGeometry y="-1" width="101" height="50" as="geometry" />
        </mxCell>
        <mxCell id="f9OrkrOD7GsaYfjVP4bd-8" value="&lt;b&gt;&lt;font color=&quot;#ffffff&quot; style=&quot;font-size: 14px;&quot;&gt;S2&lt;/font&gt;&lt;/b&gt;" style="text;html=1;align=center;verticalAlign=middle;whiteSpace=wrap;rounded=0;" parent="f9OrkrOD7GsaYfjVP4bd-9" vertex="1">
          <mxGeometry x="10" y="23" width="60" height="30" as="geometry" />
        </mxCell>
        <mxCell id="f9OrkrOD7GsaYfjVP4bd-11" value="" style="group" parent="1" vertex="1" connectable="0">
          <mxGeometry x="84" y="291.5" width="78" height="57" as="geometry" />
        </mxCell>
        <mxCell id="f9OrkrOD7GsaYfjVP4bd-3" value="" style="shape=mxgraph.cisco.routers.router;sketch=0;html=1;pointerEvents=1;dashed=0;fillColor=#036897;strokeColor=#ffffff;strokeWidth=2;verticalLabelPosition=bottom;verticalAlign=top;align=center;outlineConnect=0;" parent="f9OrkrOD7GsaYfjVP4bd-11" vertex="1">
          <mxGeometry width="78" height="53" as="geometry" />
        </mxCell>
        <mxCell id="f9OrkrOD7GsaYfjVP4bd-10" value="&lt;b&gt;&lt;font color=&quot;#ffffff&quot; style=&quot;font-size: 14px;&quot;&gt;R1&lt;/font&gt;&lt;/b&gt;" style="text;html=1;align=center;verticalAlign=middle;whiteSpace=wrap;rounded=0;" parent="f9OrkrOD7GsaYfjVP4bd-11" vertex="1">
          <mxGeometry x="8" y="27" width="60" height="30" as="geometry" />
        </mxCell>
        <mxCell id="f9OrkrOD7GsaYfjVP4bd-13" value="&lt;b&gt;&lt;font style=&quot;font-size: 14px;&quot;&gt;e0/2&lt;/font&gt;&lt;/b&gt;" style="text;html=1;align=center;verticalAlign=middle;whiteSpace=wrap;rounded=0;" parent="1" vertex="1">
          <mxGeometry x="250" y="340" width="60" height="30" as="geometry" />
        </mxCell>
        <mxCell id="f9OrkrOD7GsaYfjVP4bd-16" value="&lt;b&gt;&lt;font style=&quot;font-size: 14px;&quot;&gt;e0/0&lt;/font&gt;&lt;/b&gt;" style="text;html=1;align=center;verticalAlign=middle;whiteSpace=wrap;rounded=0;" parent="1" vertex="1">
          <mxGeometry x="162" y="312" width="60" height="34" as="geometry" />
        </mxCell>
        <mxCell id="2piaRRsvQxlYRXwN0LXb-1" value="" style="group" parent="1" vertex="1" connectable="0">
          <mxGeometry x="260" y="293" width="101" height="53" as="geometry" />
        </mxCell>
        <mxCell id="2piaRRsvQxlYRXwN0LXb-2" value="" style="shape=mxgraph.cisco.switches.workgroup_switch;sketch=0;html=1;pointerEvents=1;dashed=0;fillColor=#036897;strokeColor=#ffffff;strokeWidth=2;verticalLabelPosition=bottom;verticalAlign=top;align=center;outlineConnect=0;" parent="2piaRRsvQxlYRXwN0LXb-1" vertex="1">
          <mxGeometry width="101" height="50" as="geometry" />
        </mxCell>
        <mxCell id="2piaRRsvQxlYRXwN0LXb-3" value="&lt;b&gt;&lt;font color=&quot;#ffffff&quot; style=&quot;font-size: 14px;&quot;&gt;S1&lt;/font&gt;&lt;/b&gt;" style="text;html=1;align=center;verticalAlign=middle;whiteSpace=wrap;rounded=0;" parent="2piaRRsvQxlYRXwN0LXb-1" vertex="1">
          <mxGeometry x="10" y="23" width="60" height="30" as="geometry" />
        </mxCell>
        <mxCell id="2piaRRsvQxlYRXwN0LXb-13" value="" style="group" parent="1" vertex="1" connectable="0">
          <mxGeometry x="449" y="390" width="83" height="62" as="geometry" />
        </mxCell>
        <mxCell id="2piaRRsvQxlYRXwN0LXb-14" value="" style="shape=mxgraph.cisco.computers_and_peripherals.workstation;sketch=0;html=1;pointerEvents=1;dashed=0;fillColor=#036897;strokeColor=#ffffff;strokeWidth=2;verticalLabelPosition=bottom;verticalAlign=top;align=center;outlineConnect=0;" parent="2piaRRsvQxlYRXwN0LXb-13" vertex="1">
          <mxGeometry width="83" height="62" as="geometry" />
        </mxCell>
        <mxCell id="2piaRRsvQxlYRXwN0LXb-15" value="&lt;b&gt;&lt;font style=&quot;font-size: 14px;&quot;&gt;PC-B&lt;/font&gt;&lt;/b&gt;" style="text;html=1;align=center;verticalAlign=middle;whiteSpace=wrap;rounded=0;" parent="2piaRRsvQxlYRXwN0LXb-13" vertex="1">
          <mxGeometry x="3" y="7" width="60" height="30" as="geometry" />
        </mxCell>
        <mxCell id="2piaRRsvQxlYRXwN0LXb-4" value="&lt;b&gt;&lt;font style=&quot;font-size: 14px;&quot;&gt;e0/0&lt;/font&gt;&lt;/b&gt;" style="text;html=1;align=center;verticalAlign=middle;whiteSpace=wrap;rounded=0;" parent="1" vertex="1">
          <mxGeometry x="210" y="293" width="60" height="30" as="geometry" />
        </mxCell>
        <mxCell id="2piaRRsvQxlYRXwN0LXb-20" value="&lt;b&gt;&lt;font style=&quot;font-size: 14px;&quot;&gt;e0/1&lt;/font&gt;&lt;/b&gt;" style="text;html=1;align=center;verticalAlign=middle;whiteSpace=wrap;rounded=0;" parent="1" vertex="1">
          <mxGeometry x="342" y="318.5" width="60" height="30" as="geometry" />
        </mxCell>
        <mxCell id="2piaRRsvQxlYRXwN0LXb-21" value="&lt;b&gt;&lt;font style=&quot;font-size: 14px;&quot;&gt;e0/3&lt;/font&gt;&lt;/b&gt;" style="text;html=1;align=center;verticalAlign=middle;whiteSpace=wrap;rounded=0;" parent="1" vertex="1">
          <mxGeometry x="430" y="340" width="60" height="30" as="geometry" />
        </mxCell>
        <mxCell id="2piaRRsvQxlYRXwN0LXb-24" value="" style="endArrow=none;html=1;rounded=0;entryX=0;entryY=0.5;entryDx=0;entryDy=0;entryPerimeter=0;exitX=1;exitY=0.5;exitDx=0;exitDy=0;exitPerimeter=0;strokeWidth=3;" parent="1" source="f9OrkrOD7GsaYfjVP4bd-3" target="2piaRRsvQxlYRXwN0LXb-2" edge="1">
          <mxGeometry width="50" height="50" relative="1" as="geometry">
            <mxPoint x="180" y="370" as="sourcePoint" />
            <mxPoint x="220" y="305" as="targetPoint" />
          </mxGeometry>
        </mxCell>
        <mxCell id="2piaRRsvQxlYRXwN0LXb-25" value="" style="endArrow=none;html=1;rounded=0;entryX=0.5;entryY=0;entryDx=0;entryDy=0;entryPerimeter=0;strokeWidth=3;" parent="1" source="2piaRRsvQxlYRXwN0LXb-3" target="f9OrkrOD7GsaYfjVP4bd-1" edge="1">
          <mxGeometry width="50" height="50" relative="1" as="geometry">
            <mxPoint x="172" y="378.5" as="sourcePoint" />
            <mxPoint x="270" y="378.5" as="targetPoint" />
          </mxGeometry>
        </mxCell>
        <mxCell id="2piaRRsvQxlYRXwN0LXb-26" value="" style="endArrow=none;html=1;rounded=0;strokeWidth=3;" parent="1" source="f9OrkrOD7GsaYfjVP4bd-8" target="2piaRRsvQxlYRXwN0LXb-14" edge="1">
          <mxGeometry width="50" height="50" relative="1" as="geometry">
            <mxPoint x="489" y="348.5" as="sourcePoint" />
            <mxPoint x="490" y="392.5" as="targetPoint" />
          </mxGeometry>
        </mxCell>
        <mxCell id="2piaRRsvQxlYRXwN0LXb-27" value="" style="endArrow=none;html=1;rounded=0;entryX=0;entryY=0.5;entryDx=0;entryDy=0;entryPerimeter=0;strokeWidth=3;" parent="1" source="2piaRRsvQxlYRXwN0LXb-2" target="f9OrkrOD7GsaYfjVP4bd-2" edge="1">
          <mxGeometry width="50" height="50" relative="1" as="geometry">
            <mxPoint x="400" y="260" as="sourcePoint" />
            <mxPoint x="498" y="260" as="targetPoint" />
          </mxGeometry>
        </mxCell>
        <mxCell id="f9OrkrOD7GsaYfjVP4bd-12" value="&lt;b&gt;&lt;font style=&quot;font-size: 14px;&quot;&gt;e0/1&lt;/font&gt;&lt;/b&gt;" style="text;html=1;align=center;verticalAlign=middle;whiteSpace=wrap;rounded=0;" parent="1" vertex="1">
          <mxGeometry x="410" y="288.5" width="60" height="30" as="geometry" />
        </mxCell>
      </root>
    </mxGraphModel>
  </diagram>
</mxfile>
